<?xml version="1.0" encoding="UTF-8" standalone="no"?>
<svg width="234px" height="57px" viewBox="0 0 234 57" version="1.1" xmlns="http://www.w3.org/2000/svg" xmlns:xlink="http://www.w3.org/1999/xlink" xmlns:sketch="http://www.bohemiancoding.com/sketch/ns">
    <!-- Generator: Sketch 3.3.1 (12002) - http://www.bohemiancoding.com/sketch -->
    <title>lime-logo+typo</title>
    <desc>Created with Sketch.</desc>
    <defs>
        <linearGradient x1="50%" y1="0%" x2="50%" y2="100%" id="linearGradient-1">
            <stop stop-color="#B4ED50" offset="0%"></stop>
            <stop stop-color="#FAFA0B" offset="100%"></stop>
        </linearGradient>
        <path d="M27.3583333,25.0475999 C28.2963854,24.233414 28.8895833,23.0323355 28.8895833,21.6927083 C28.8895833,19.2402189 26.9014478,17.2520833 24.4489583,17.2520833 C21.9964689,17.2520833 20.0083333,19.2402189 20.0083333,21.6927083 C20.0083333,23.1728391 20.7324889,24.4838343 21.8458333,25.2907272 L21.8458333,28.899353 C21.8458333,30.4120789 23.0798485,31.6458333 24.6020833,31.6458333 C26.1212207,31.6458333 27.3583333,30.4161922 27.3583333,28.899353 L27.3583333,25.0475999 Z" id="path-2"></path>
        <filter x="-50%" y="-50%" width="200%" height="200%" filterUnits="objectBoundingBox" id="filter-3">
            <feOffset dx="0" dy="2" in="SourceAlpha" result="shadowOffsetOuter1"></feOffset>
            <feGaussianBlur stdDeviation="2.5" in="shadowOffsetOuter1" result="shadowBlurOuter1"></feGaussianBlur>
            <feColorMatrix values="0 0 0 0 0   0 0 0 0 0   0 0 0 0 0  0 0 0 0.35 0" in="shadowBlurOuter1" type="matrix" result="shadowMatrixOuter1"></feColorMatrix>
            <feMerge>
                <feMergeNode in="shadowMatrixOuter1"></feMergeNode>
                <feMergeNode in="SourceGraphic"></feMergeNode>
            </feMerge>
        </filter>
    </defs>
    <g id="App-Landing-Page" stroke="none" stroke-width="1" fill="none" fill-rule="evenodd" sketch:type="MSPage">
        <g id="Screensize-1920x1080px" sketch:type="MSArtboardGroup" transform="translate(-291.000000, -56.000000)">
            <g id="lime-logo+typo" sketch:type="MSLayerGroup" transform="translate(295.000000, 57.000000)">
                <g id="Oval-22-+-Oval-7-+-Shape" transform="translate(0.500000, 0.750000)">
                    <g id="Group">
                        <g id="Oval-7">
                            <use stroke="url(#linearGradient-1)" stroke-width="1.76431922" sketch:type="MSShapeGroup" xlink:href="#path-2"></use>
                            <use stroke="none" xlink:href="#path-2"></use>
                        </g>
                        <path d="M7.98855556,0.992432242 C6.11722222,0.992432242 4.35788889,1.72092526 3.03488889,3.04340831 C1.71266667,4.36511389 0.984666667,6.1229823 0.984666667,7.99358443 C0.984666667,9.82375792 1.68155556,11.5458625 2.95011111,12.8566835 C1.01733333,16.4307309 0,20.4471609 0,24.5351185 L0,24.5366734 C-1.02590332e-14,31.0682314 2.54411111,37.2094975 7.16411111,41.8269148 C14.8586667,49.5184638 26.6435556,51.1884776 36.1456667,46.0400457 C38.8834444,48.6834568 43.2615556,48.6546903 45.9635556,45.9545236 C47.2873333,44.631263 48.0168889,42.8726171 48.0168889,41.0027925 C48.0168889,39.1741739 47.32,37.4528468 46.0498889,36.138916 C47.9826667,32.5664235 49,28.5515485 49,24.4635909 C49,17.9297005 46.4558889,11.7876569 41.8351111,7.16946213 C34.1452222,-0.518199485 22.3603333,-2.18665841 12.8543333,2.95710871 C11.5422222,1.68904883 9.81944444,0.992432242 7.98855556,0.992432242 L7.98855556,0.992432242 L7.98855556,0.992432242 Z M40.1751251,8.82938655 C44.352153,13.0045513 46.6520833,18.5564172 46.6520833,24.4633352 C46.6520833,28.4605854 45.5771243,32.3809206 43.543019,35.8001428 L43.0059281,36.7029232 L43.9137749,37.3796199 C44.0474647,37.4790656 44.182709,37.5738498 44.3016307,37.6927184 C45.1838277,38.5745219 45.669619,39.7461164 45.669619,40.9915181 C45.669619,42.2369199 45.1838277,43.4092912 44.3008534,44.2918717 C42.4812735,46.1106399 39.5198898,46.1106399 37.7018644,44.2934255 C37.5891608,44.1807722 37.4997752,44.0556882 37.405726,43.932158 L36.6976366,43.0045162 L35.8053352,43.5351522 C27.0875188,48.7172045 15.9920455,47.3319572 8.82487493,40.1672067 C4.647847,35.991265 2.34791667,30.4409529 2.34791667,24.5355887 L2.34791667,24.5348118 C2.34791667,20.5383385 3.42287566,16.6180033 5.45620373,13.1972273 L5.98785373,12.30377 L5.07067975,11.6076503 C4.94398538,11.5113122 4.81418194,11.4188588 4.6983693,11.3030979 C3.81772683,10.4228482 3.33271279,9.25203069 3.33271279,8.00507509 C3.33271279,6.7588964 3.81772683,5.58652506 4.6983693,4.7062754 C5.57978904,3.82524882 6.75268355,3.33967421 8.00019561,3.33967421 C9.24770768,3.33967421 10.4190477,3.8244719 11.3004674,4.70472156 C11.4240527,4.82825174 11.5219882,4.96732031 11.6618961,5.15611172 L12.2891499,6.00062309 L13.1938876,5.46377179 C21.9155903,0.284050285 33.0110636,1.6677437 40.1751251,8.82938655 L40.1751251,8.82938655 L40.1751251,8.82938655 Z" id="Shape" fill="url(#linearGradient-1)" sketch:type="MSShapeGroup"></path>
                    </g>
                </g>
                <path d="M83.448,31.872 C83.448,31.392 83.064,31.008 82.584,31.008 L75.864,31.008 L75.864,17.592 C75.864,17.064 75.432,16.632 74.904,16.632 C74.304,16.632 73.872,17.064 73.872,17.592 L73.872,31.344 C73.872,32.136 74.52,32.784 75.312,32.784 L82.584,32.784 C83.064,32.784 83.448,32.4 83.448,31.872 L83.448,31.872 Z M89.8122354,31.944 L89.8122354,17.592 C89.8122354,17.064 89.3802354,16.632 88.8522354,16.632 C88.2522354,16.632 87.8202354,17.064 87.8202354,17.592 L87.8202354,31.944 C87.8202354,32.496 88.2522354,32.928 88.8042354,32.928 C89.3802354,32.928 89.8122354,32.496 89.8122354,31.944 L89.8122354,31.944 Z M110.936471,31.944 L110.936471,18.264 C110.936471,17.4 110.192471,16.656 109.280471,16.656 C108.608471,16.656 107.960471,17.04 107.696471,17.664 L103.088471,28.824 L98.5044708,17.664 C98.2404708,17.04 97.5684708,16.656 96.9204708,16.656 C96.0084708,16.656 95.2644708,17.4 95.2644708,18.264 L95.2644708,31.944 C95.2644708,32.496 95.6964708,32.928 96.2484708,32.928 C96.8244708,32.928 97.2564708,32.496 97.2564708,31.944 L97.2564708,19.608 L102.608471,32.616 C102.680471,32.808 102.872471,32.928 103.064471,32.928 C103.304471,32.928 103.496471,32.808 103.568471,32.616 L108.944471,19.608 L108.944471,31.944 C108.944471,32.496 109.376471,32.928 109.928471,32.928 C110.504471,32.928 110.936471,32.496 110.936471,31.944 L110.936471,31.944 Z M127.020706,31.872 C127.020706,31.392 126.636706,31.008 126.156706,31.008 L118.380706,31.008 L118.380706,25.488 L125.988706,25.488 C126.468706,25.488 126.852706,25.104 126.852706,24.624 C126.852706,24.096 126.468706,23.712 125.988706,23.712 L118.380706,23.712 L118.380706,18.552 L126.156706,18.552 C126.636706,18.552 127.020706,18.168 127.020706,17.688 C127.020706,17.16 126.636706,16.776 126.156706,16.776 L117.828706,16.776 C117.036706,16.776 116.388706,17.424 116.388706,18.216 L116.388706,31.344 C116.388706,32.136 117.036706,32.784 117.828706,32.784 L126.156706,32.784 C126.636706,32.784 127.020706,32.4 127.020706,31.872 L127.020706,31.872 Z M150.424942,17.64 C150.424942,17.088 149.968942,16.656 149.368942,16.656 C148.888942,16.656 148.456942,16.968 148.336942,17.424 L144.976942,30.12 L141.472942,17.376 C141.352942,16.944 140.944942,16.632 140.488942,16.632 C139.984942,16.632 139.600942,16.944 139.480942,17.376 L135.976942,30.12 L132.592942,17.424 C132.472942,16.944 132.016942,16.632 131.536942,16.632 C130.912942,16.632 130.504942,17.136 130.504942,17.64 C130.504942,17.736 130.528942,17.832 130.552942,17.928 L134.536942,31.968 C134.680942,32.52 135.160942,32.928 135.808942,32.928 L135.832942,32.928 C136.480942,32.928 136.984942,32.52 137.152942,31.944 L140.464942,19.872 L143.752942,31.944 C143.896942,32.496 144.400942,32.928 145.024942,32.928 L145.048942,32.928 C145.672942,32.928 146.224942,32.52 146.392942,31.944 L150.376942,17.928 C150.400942,17.832 150.424942,17.736 150.424942,17.64 L150.424942,17.64 Z M166.773177,31.872 C166.773177,31.752 166.749177,31.608 166.701177,31.488 L161.133177,17.712 C160.869177,17.064 160.245177,16.632 159.549177,16.632 C158.805177,16.632 158.181177,17.064 157.917177,17.712 L152.397177,31.488 C152.349177,31.608 152.325177,31.752 152.325177,31.872 C152.325177,32.424 152.781177,32.928 153.405177,32.928 C153.813177,32.928 154.197177,32.688 154.365177,32.28 L155.565177,29.232 L163.533177,29.232 L164.733177,32.28 C164.901177,32.688 165.285177,32.928 165.693177,32.928 C166.341177,32.928 166.773177,32.352 166.773177,31.872 L166.773177,31.872 Z M162.933177,27.456 L156.141177,27.456 L159.549177,18.84 L162.933177,27.456 Z M180.601412,31.872 C180.601412,31.392 180.217412,31.008 179.737412,31.008 L173.017412,31.008 L173.017412,17.592 C173.017412,17.064 172.585412,16.632 172.057412,16.632 C171.457412,16.632 171.025412,17.064 171.025412,17.592 L171.025412,31.344 C171.025412,32.136 171.673412,32.784 172.465412,32.784 L179.737412,32.784 C180.217412,32.784 180.601412,32.4 180.601412,31.872 L180.601412,31.872 Z M194.549648,31.872 C194.549648,31.392 194.165648,31.008 193.685648,31.008 L186.965648,31.008 L186.965648,17.592 C186.965648,17.064 186.533648,16.632 186.005648,16.632 C185.405648,16.632 184.973648,17.064 184.973648,17.592 L184.973648,31.344 C184.973648,32.136 185.621648,32.784 186.413648,32.784 L193.685648,32.784 C194.165648,32.784 194.549648,32.4 194.549648,31.872 L194.549648,31.872 Z M209.553883,31.872 C209.553883,31.392 209.169883,31.008 208.689883,31.008 L200.913883,31.008 L200.913883,25.488 L208.521883,25.488 C209.001883,25.488 209.385883,25.104 209.385883,24.624 C209.385883,24.096 209.001883,23.712 208.521883,23.712 L200.913883,23.712 L200.913883,18.552 L208.689883,18.552 C209.169883,18.552 209.553883,18.168 209.553883,17.688 C209.553883,17.16 209.169883,16.776 208.689883,16.776 L200.361883,16.776 C199.569883,16.776 198.921883,17.424 198.921883,18.216 L198.921883,31.344 C198.921883,32.136 199.569883,32.784 200.361883,32.784 L208.689883,32.784 C209.169883,32.784 209.553883,32.4 209.553883,31.872 L209.553883,31.872 Z M225.470118,17.688 C225.470118,17.16 225.086118,16.776 224.606118,16.776 L213.902118,16.776 C213.422118,16.776 213.038118,17.16 213.038118,17.64 C213.038118,18.168 213.422118,18.552 213.902118,18.552 L218.246118,18.552 L218.246118,31.944 C218.246118,32.496 218.678118,32.928 219.230118,32.928 C219.806118,32.928 220.238118,32.496 220.238118,31.944 L220.238118,18.552 L224.606118,18.552 C225.086118,18.552 225.470118,18.168 225.470118,17.688 L225.470118,17.688 Z" id="LIMEWALLET" stroke="#D3EB00" stroke-width="0.5" fill="#D3EB00" filter="url(#filter-3)" sketch:type="MSShapeGroup"></path>
            </g>
        </g>
    </g>
</svg>