<?xml version="1.0" encoding="UTF-8" ?>
<!DOCTYPE svg PUBLIC "-//W3C//DTD SVG 1.1//EN" "http://www.w3.org/Graphics/SVG/1.1/DTD/svg11.dtd">
<svg width="256pt" height="331pt" viewBox="0 0 256 331" version="1.1" xmlns="http://www.w3.org/2000/svg">
<g id="#000000ff">
<path fill="#E74C3C" opacity="1.00" d=" M 85.10 45.09 C 107.23 37.01 131.59 35.70 154.60 40.43 C 184.93 46.99 212.82 64.79 231.09 89.95 C 246.32 110.64 255.08 135.90 256.00 161.58 L 256.00 173.36 C 254.07 195.47 247.22 217.29 234.85 235.82 C 219.00 259.98 194.69 278.42 167.16 287.18 C 139.92 296.08 109.64 295.31 82.87 285.10 C 57.11 275.48 34.69 257.25 19.98 234.02 C 8.33 215.89 1.88 194.76 0.00 173.37 L 0.00 160.56 C 0.95 141.04 6.21 121.73 15.53 104.54 C 30.36 77.06 55.63 55.44 85.10 45.09 M 55.83 95.83 C 51.95 98.96 52.52 105.73 56.96 108.07 C 63.08 111.05 69.96 112.07 76.23 114.71 C 78.31 133.45 80.01 152.23 82.04 170.98 C 83.82 181.51 78.93 191.62 78.66 202.06 C 79.06 206.56 83.65 209.40 87.92 208.98 C 119.30 208.95 150.69 209.05 182.08 208.94 C 186.83 209.27 191.32 204.88 190.25 200.03 C 189.76 195.62 185.08 193.29 181.01 193.63 C 152.71 193.64 124.40 193.58 96.10 193.67 C 95.48 190.22 96.80 186.81 97.36 183.43 C 125.24 183.37 153.12 183.41 181.00 183.42 C 184.57 183.33 188.23 183.77 191.72 182.84 C 194.68 181.71 196.13 178.62 196.58 175.67 C 198.46 165.24 200.26 154.80 202.18 144.38 C 202.63 141.46 203.36 138.10 201.47 135.52 C 199.66 132.88 196.39 132.02 193.38 131.70 C 159.80 127.93 126.20 124.32 92.65 120.36 C 92.10 116.06 92.01 111.71 91.25 107.44 C 90.76 104.50 88.54 102.05 85.68 101.25 C 78.89 99.03 72.07 96.91 65.26 94.74 C 62.18 93.67 58.34 93.31 55.83 95.83 M 93.34 214.34 C 89.84 215.76 87.16 219.02 86.44 222.73 C 84.69 229.43 89.93 236.94 96.95 237.17 C 104.60 238.27 111.63 230.52 109.73 223.01 C 108.68 215.67 99.98 211.45 93.34 214.34 M 163.43 214.47 C 155.16 218.05 154.52 231.24 162.38 235.62 C 169.55 240.24 180.43 234.73 180.31 226.01 C 181.35 217.24 171.18 210.69 163.43 214.47 Z" />
</g>
</svg>
