<?xml version="1.0" encoding="UTF-8" standalone="no"?>
<svg width="29px" height="36px" viewBox="0 0 29 36" version="1.1" xmlns="http://www.w3.org/2000/svg" xmlns:xlink="http://www.w3.org/1999/xlink" xmlns:sketch="http://www.bohemiancoding.com/sketch/ns">
    <!-- Generator: Sketch 3.2.2 (9983) - http://www.bohemiancoding.com/sketch -->
    <title>ico-friends-2</title>
    <desc>Created with Sketch.</desc>
    <defs></defs>
    <g id="GUI-light" stroke="none" stroke-width="1" fill="none" fill-rule="evenodd" sketch:type="MSPage">
        <g id="Menu-Drawer-2" sketch:type="MSArtboardGroup" transform="translate(-60.000000, -1154.000000)" fill="#D3EB00">
            <g id="Group" sketch:type="MSLayerGroup" transform="translate(57.000000, 93.000000)">
                <g id="menu" transform="translate(0.421875, 498.693246)" sketch:type="MSShapeGroup">
                    <g id="Groups" transform="translate(0.000000, 516.706379)">
                        <path d="M29.1691406,57.4622017 L27.1640625,57.4622017 C26.6507813,57.4622017 26.2359375,57.8746295 26.2359375,58.3843058 C26.2359375,58.4382026 26.2417969,58.4885844 26.25,58.5389662 C26.2664063,58.592863 26.2816406,58.6479315 26.2945313,58.7018283 L26.2945313,58.706515 C26.3695313,59.0076341 26.4082031,59.323985 26.4082031,59.6485375 C26.4082031,59.703606 26.4046875,59.7586745 26.4023438,59.813743 L25.5820313,68.8625488 C25.5796875,68.8801238 25.5785156,68.8976989 25.575,68.9141023 C25.5726563,68.9480807 25.5679688,68.9785441 25.5632813,69.0101792 C25.4449219,69.7600478 25.0605469,70.447818 24.4816406,70.9457777 C24.15,71.2304934 23.7679688,71.444909 23.3578125,71.5773077 C23.3414063,71.5819944 23.325,71.5878527 23.3074219,71.5925394 C22.9875,71.7026764 22.7472656,71.9827054 22.6957031,72.324833 C22.6933594,72.324833 22.6933594,72.324833 22.6957031,72.324833 L22.6839844,72.4619184 L22.6839844,72.4630901 L22.284375,77.4356567 L22.2785156,77.4918968 L22.2785156,77.5000985 L22.2785156,77.5375919 C22.2785156,78.04844 22.6933594,78.4608677 23.2066406,78.4608677 L26.0238281,78.4608677 C26.6238281,78.4608677 27.1207031,78.0320366 27.2226563,77.4649484 L27.2414063,77.2294428 L27.8953125,69.1062561 C27.8953125,69.0793077 27.8964844,69.053531 27.9011719,69.0265826 C27.9480469,68.6446182 28.265625,68.3458424 28.6558594,68.3212373 C28.6722656,68.3212373 28.6910156,68.3200657 28.7085938,68.3200657 C28.7261719,68.3200657 28.74375,68.3212373 28.7601563,68.3212373 L29.1246094,68.3212373 L29.1246094,68.3200657 C29.7328125,68.3200657 30.2402344,67.8736595 30.3292969,67.2913396 L30.3292969,67.2772795 L30.3410156,67.1565976 L31.0511719,59.3333583 C31.0511719,58.2987739 30.2097656,57.4622017 29.1691406,57.4622017 Z M23.1867187,55.694152 C23.2476562,55.711727 23.3109375,55.7304737 23.3742187,55.7457054 C23.7070312,55.8312373 24.0539062,55.8769325 24.4136719,55.8769325 C26.7140625,55.8769325 28.5785156,54.0221792 28.5785156,51.7362514 C28.5785156,49.449152 26.7140625,47.593227 24.4136719,47.593227 C24.2964844,47.593227 24.1804687,47.5979137 24.0667969,47.6084587 C24.0386719,47.6108021 24.0140625,47.6119737 23.9882812,47.6154887 C23.9777344,47.6166604 23.9683594,47.6166604 23.9589844,47.6201754 C23.5136719,47.6869606 23.1726562,48.068925 23.1726562,48.5305629 C23.1726562,48.6196098 23.1867187,48.707485 23.2089844,48.7871585 C23.221875,48.821137 23.2324219,48.8516004 23.2441406,48.8844071 C23.2441406,48.8844071 23.2464844,48.8879221 23.2464844,48.8890938 C23.4703125,49.5499156 23.5933594,50.2576041 23.5933594,50.9898977 C23.5933594,52.192031 23.2652344,53.3191773 22.6957031,54.2881482 C22.6957031,54.2904916 22.6933594,54.2928349 22.6933594,54.2951782 C22.6746094,54.32447 22.6582031,54.3549334 22.640625,54.3830535 C22.5714844,54.5107655 22.5328125,54.6572242 22.5328125,54.8107129 C22.5328125,55.2266557 22.8082031,55.5758133 23.1867187,55.694152 Z M22.3582031,69.8889315 C23.053125,69.8889315 23.6285156,69.3815985 23.7316406,68.7172617 L23.7316406,68.7008583 L23.7433594,68.5661163 L24.5519531,59.6485375 C24.5519531,58.4698377 23.5933594,57.5149268 22.4085937,57.5149268 L11.5722656,57.5149268 C10.3875,57.5149268 9.42773437,58.4698377 9.42773437,59.6485375 L10.2292969,68.4981595 L10.2539062,68.7641285 C10.3757812,69.4050319 10.940625,69.8889315 11.6191406,69.8889315 L11.6191406,69.8901032 L12.0398437,69.8901032 C12.0585937,69.8889315 12.0796875,69.8889315 12.0984375,69.8889315 C12.1195312,69.8889315 12.1382812,69.8889315 12.159375,69.8901032 C12.5085937,69.9135366 12.8050781,70.1267805 12.9433594,70.426728 C12.9785156,70.5064015 13.0042969,70.5907617 13.0171875,70.678637 C13.0230469,70.7184737 13.0265625,70.7583105 13.0265625,70.7993189 L13.7707031,80.074257 L13.7882812,80.2828143 C13.8925781,80.9412927 14.4667969,81.4462824 15.1582031,81.4462824 L18.8261719,81.4462824 C19.5070312,81.4462824 20.0753906,80.9565244 20.1914062,80.3097627 L20.2136719,80.0437936 L20.9566406,70.7840872 C20.9566406,70.7536238 20.9601562,70.7243321 20.9625,70.696212 C20.9753906,70.6013068 21.0011719,70.5087448 21.0398437,70.426728 C21.178125,70.1267805 21.4757812,69.9135366 21.825,69.8901032 C21.8449219,69.8889315 21.8636719,69.8889315 21.8847656,69.8889315 C21.9035156,69.8889315 21.9246094,69.8889315 21.9433594,69.8901032 L22.3582031,69.8901032 L22.3582031,69.8889315 Z M16.9898438,55.7093837 C18.553125,55.7093837 19.9382813,54.9606867 20.803125,53.8019053 C21.3902344,53.0168865 21.7371094,52.0444006 21.7371094,50.9898977 C21.7371094,50.2786942 21.5777344,49.6002974 21.2917969,48.9945441 C20.5359375,47.3846698 18.8953125,46.2704118 16.9898438,46.2704118 C15.0878906,46.2704118 13.44375,47.3858415 12.6890625,48.9945441 C12.4054688,49.6026407 12.2449219,50.2786942 12.2449219,50.9898977 C12.2449219,52.0444006 12.5929688,53.0168865 13.1777344,53.7983902 C14.0425781,54.9606867 15.4289063,55.7093837 16.9898438,55.7093837 Z M11.6953125,77.427455 L11.2992188,72.4630901 L11.2992188,72.4619184 L11.2863281,72.324833 L11.2863281,72.3224897 C11.2359375,71.9909071 11.0074219,71.7167364 10.7003906,71.6007411 C10.6675781,71.5925394 10.6359375,71.5819944 10.6019531,71.5702777 L10.5972656,71.5702777 C9.50507813,71.20706 8.65546875,70.2826126 8.43046875,69.1062561 C8.41992188,69.0488443 8.41054688,68.9902608 8.40585938,68.9305056 L8.38125,68.6633649 L7.58085938,59.813743 C7.575,59.7586745 7.57148438,59.703606 7.57148438,59.6485375 C7.57148438,59.323985 7.61132813,59.0123208 7.68515625,58.7112017 C7.69804688,58.6502749 7.71679688,58.5905197 7.73320313,58.5307645 C7.74023438,58.4838977 7.74492188,58.4346876 7.74492188,58.3843058 C7.74492188,57.8746295 7.33007813,57.4622017 6.81796875,57.4622017 L4.81289063,57.4622017 C3.7734375,57.4622017 2.93203125,58.2987739 2.93203125,59.3333583 L3.63515625,67.1003574 L3.65507813,67.3335197 C3.76171875,67.8947495 4.25742188,68.3200657 4.85390625,68.3200657 L4.85390625,68.3212373 L5.22070313,68.3212373 C5.23945313,68.3212373 5.25585938,68.3200657 5.27460938,68.3200657 C5.2921875,68.3200657 5.30976563,68.3212373 5.32734375,68.3212373 C5.71289063,68.3458424 6.02578125,68.6375882 6.0796875,69.0136942 C6.08671875,69.0488443 6.08789063,69.081651 6.0890625,69.1191445 L6.74179688,77.2563912 L6.75703125,77.4403433 C6.84960938,78.0179765 7.35351563,78.4608677 7.96054688,78.4608677 L10.7765625,78.4608677 C11.2886719,78.4608677 11.7046875,78.04844 11.7046875,77.5375919 C11.7046875,77.5270469 11.7046875,77.5165019 11.7035156,77.5071285 L11.6953125,77.427455 Z M9.5671875,55.8769325 C9.91054687,55.8769325 10.2445312,55.8347523 10.5644531,55.7562505 C10.6417969,55.7375038 10.7203125,55.7164137 10.7953125,55.694152 C10.8,55.6918086 10.8035156,55.690637 10.8046875,55.690637 C11.1796875,55.569955 11.4492187,55.2231407 11.4492187,54.8107129 C11.4492187,54.6572242 11.409375,54.5107655 11.3425781,54.3830535 C11.3238281,54.3549334 11.30625,54.32447 11.2898437,54.2951782 C11.2886719,54.2928349 11.2863281,54.2904916 11.2851562,54.2881482 C10.7167969,53.3191773 10.3898437,52.192031 10.3898437,50.9898977 C10.3898437,50.2576041 10.5128906,49.5499156 10.7367187,48.8890938 L10.7367187,48.8844071 C10.7496094,48.8516004 10.7613281,48.821137 10.771875,48.7871585 C10.7953125,48.707485 10.809375,48.6196098 10.809375,48.5305629 C10.809375,48.068925 10.4683594,47.6869606 10.021875,47.6201754 C10.0136719,47.6166604 10.0042969,47.6166604 9.99375,47.6154887 C9.96796875,47.6119737 9.9421875,47.6108021 9.91640625,47.6084587 C9.80273437,47.5979137 9.68554687,47.593227 9.5671875,47.593227 C7.26796875,47.593227 5.40234375,49.449152 5.40234375,51.7362514 C5.40234375,54.0221792 7.26796875,55.8769325 9.5671875,55.8769325 Z" id="ico-friends-2"></path>
                    </g>
                </g>
            </g>
        </g>
    </g>
</svg>