<?xml version="1.0" encoding="UTF-8" standalone="no"?>
<svg width="40px" height="42px" viewBox="0 0 40 42" version="1.1" xmlns="http://www.w3.org/2000/svg" xmlns:xlink="http://www.w3.org/1999/xlink" xmlns:sketch="http://www.bohemiancoding.com/sketch/ns">
    <!-- Generator: Sketch 3.2.2 (9983) - http://www.bohemiancoding.com/sketch -->
    <title>ico-assets</title>
    <desc>Created with Sketch.</desc>
    <defs></defs>
    <g id="GUI-light" stroke="none" stroke-width="1" fill="none" fill-rule="evenodd" sketch:type="MSPage">
        <g id="Menu-Drawer-1" sketch:type="MSArtboardGroup" transform="translate(-55.000000, -707.000000)" fill="#7F7F7F">
            <g id="Drawer" sketch:type="MSLayerGroup">
                <path d="M91,738.559952 L67,738.559952 L67,725.216643 L73,725.216643 L73,736.51131 L77,736.51131 L77,725.216643 L83,725.216643 L83,736.51131 L87,736.51131 L87,725.216643 L91,725.216643 L91,721.314905 L75,707 L59,721.314905 L59,725.216643 L60.746,725.216643 L75,712.464071 L84.639,721.087619 L68.416,721.087619 L63,725.932286 L63,738.559952 L59,738.559952 L59,744.70281 L55,744.70281 L55,748.799071 L95,748.799071 L95,744.70281 L63,744.70281 L63,742.65519 L91,742.65519 L91,738.559952 Z" id="ico-assets" sketch:type="MSShapeGroup"></path>
            </g>
        </g>
    </g>
</svg>