<?xml version="1.0" encoding="UTF-8" standalone="no"?>
<svg width="37px" height="36px" viewBox="0 0 37 36" version="1.1" xmlns="http://www.w3.org/2000/svg" xmlns:xlink="http://www.w3.org/1999/xlink" xmlns:sketch="http://www.bohemiancoding.com/sketch/ns">
    <!-- Generator: Sketch 3.2.2 (9983) - http://www.bohemiancoding.com/sketch -->
    <title>ico-assets-2</title>
    <desc>Created with Sketch.</desc>
    <defs></defs>
    <g id="GUI-light" stroke="none" stroke-width="1" fill="none" fill-rule="evenodd" sketch:type="MSPage">
        <g id="Menu-Drawer-2" sketch:type="MSArtboardGroup" transform="translate(-57.000000, -918.000000)" fill="#D3EB00">
            <g id="Group" sketch:type="MSLayerGroup" transform="translate(57.000000, 93.000000)">
                <g id="menu" transform="translate(0.421875, 498.693246)" sketch:type="MSShapeGroup">
                    <g id="Explore" transform="translate(0.000000, 282.372420)">
                        <path d="M5.69648437,49.0671876 C-1.16601563,55.9308293 -1.16601563,67.0605206 5.69648437,73.9241623 C12.5578125,80.7878039 23.6882812,80.7878039 30.5542969,73.9241623 C37.4203125,67.0581773 37.4167969,55.9331726 30.5542969,49.0671876 C23.6882812,42.2058893 12.5625,42.203546 5.69648437,49.0671876 L5.69648437,49.0671876 Z M28.9734375,68.695 C28.9523437,68.7336651 28.9277344,68.7688152 28.8996094,68.805137 C28.8574219,68.8613771 28.8117187,68.9164456 28.7578125,68.9668274 C28.3804687,69.3476201 27.8460937,69.4776754 27.3621094,69.3605084 C27.3375,69.3523068 27.3117187,69.3476201 27.2871094,69.3417617 L26.4949219,69.1320328 L26.4914062,69.1296895 L26.3683594,69.0980544 C26.1984375,69.0699343 26.0179687,69.1226595 25.8832031,69.2550582 C25.753125,69.3886285 25.7003906,69.567894 25.7285156,69.7377861 L25.7601562,69.8619831 L25.7601562,69.8654981 L25.96875,70.6575469 C25.9757812,70.682152 25.9828125,70.706757 25.9898437,70.7313621 C26.1070312,71.2152617 25.9757812,71.7495432 25.5972656,72.1303358 C25.5445312,72.1807176 25.4917969,72.2264128 25.434375,72.2697645 C25.3992187,72.2978846 25.3640625,72.3224897 25.3253906,72.3447514 C20.26875,75.7086154 13.3792969,75.1614456 8.9203125,70.7008987 C4.45898437,66.2415235 3.91054687,59.3532767 7.27617187,54.2963499 C7.29726562,54.2588565 7.321875,54.221363 7.35117187,54.1862129 C7.39335937,54.1299728 7.4390625,54.0749043 7.48828125,54.0233508 C7.8703125,53.6460732 8.4046875,53.5148462 8.88867187,53.6308415 C8.91328125,53.6390432 8.93789062,53.6460732 8.9625,53.6507598 L9.7546875,53.8616604 L9.75820312,53.8616604 L9.88242187,53.8932955 C10.0523437,53.9214156 10.2316406,53.8686904 10.3664062,53.7374634 C10.4976562,53.6038931 10.5503906,53.4234559 10.5222656,53.2535638 L10.490625,53.1293668 L10.490625,53.1281951 L10.2785156,52.333803 C10.275,52.3091979 10.2679687,52.2845929 10.2609375,52.2599878 C10.1402344,51.7760882 10.275,51.2418068 10.6523437,50.8621857 C10.7027344,50.8106323 10.7589844,50.7649371 10.8152344,50.7215854 C10.8503906,50.6934653 10.8855469,50.6688602 10.9253906,50.6477702 C15.984375,47.2815629 22.8714844,47.8322477 27.3292969,52.2916229 C31.7917969,56.7498265 32.3390625,63.6392448 28.9734375,68.695 L28.9734375,68.695 Z M24.8085937,53.7608968 L24.6925781,53.8265103 L16.4648437,58.5776313 L16.4015625,58.6162964 C16.1683594,58.7545535 15.9492187,58.9244456 15.7511719,59.1212861 C15.553125,59.3192983 15.3867187,59.5337139 15.2484375,59.7598462 L15.1886719,59.8641248 L10.4554687,68.0658133 L10.3875,68.1794653 C10.2503906,68.4723827 10.2996094,68.8344287 10.5433594,69.0769644 C10.7871094,69.3195 11.1480469,69.3722251 11.4410156,69.2327964 L11.5546875,69.1671829 L19.7566406,64.4312936 L19.8597656,64.3715385 C20.0894531,64.2332814 20.3015625,64.068076 20.4996094,63.8700638 C20.6976562,63.6720516 20.8664062,63.4529493 21.0046875,63.2186154 L21.0433594,63.1553452 L25.7953125,54.9267083 L25.8621094,54.8118846 C26.0003906,54.5189672 25.9476562,54.1580929 25.7074219,53.9155572 C25.4636719,53.6741932 25.1027344,53.6214681 24.8085937,53.7608968 L24.8085937,53.7608968 Z M19.0675781,62.439455 C18.5472656,62.960848 17.7023437,62.960848 17.1832031,62.439455 C16.659375,61.9180619 16.659375,61.073288 17.1832031,60.5542383 C17.7023437,60.0305019 18.5472656,60.0305019 19.0675781,60.5542383 C19.5902344,61.073288 19.5902344,61.9180619 19.0675781,62.439455 L19.0675781,62.439455 Z" id="ico-assets-2"></path>
                    </g>
                </g>
            </g>
        </g>
    </g>
</svg>