<?xml version="1.0" encoding="UTF-8" standalone="no"?>
<svg width="48px" height="49px" viewBox="0 0 48 49" version="1.1" xmlns="http://www.w3.org/2000/svg" xmlns:xlink="http://www.w3.org/1999/xlink" xmlns:sketch="http://www.bohemiancoding.com/sketch/ns">
    <!-- Generator: Sketch 3.3.1 (12002) - http://www.bohemiancoding.com/sketch -->
    <title>qr-code</title>
    <desc>Created with Sketch.</desc>
    <defs></defs>
    <g id="GUI-light" stroke="none" stroke-width="1" fill="none" fill-rule="evenodd" sketch:type="MSPage">
        <g id="Dashboard-6" sketch:type="MSArtboardGroup" transform="translate(-649.000000, -89.650080)" fill="#5f7381">
            <g id="qr-code" sketch:type="MSLayerGroup" transform="translate(649.000000, 90.000000)">
                <path d="M13.2641168,14.4226569 C13.9090219,14.4226569 14.432,13.8997956 14.432,13.2547737 L14.432,1.16788321 C14.432,0.522861314 13.9090219,0 13.2641168,0 L1.1769927,0 C0.532087591,0 0.00910948905,0.522861314 0.00910948905,1.16788321 L0.00910948905,13.2547737 C0.00910948905,13.8997956 0.532087591,14.4226569 1.1769927,14.4226569 L13.2641168,14.4226569 L13.2641168,14.4226569 Z M2.34487591,2.33576642 L12.0962336,2.33576642 L12.0962336,12.0868905 L2.34487591,12.0868905 L2.34487591,2.33576642 L2.34487591,2.33576642 Z" id="Shape" sketch:type="MSShapeGroup"></path>
                <rect id="Rectangle-path" sketch:type="MSShapeGroup" x="4.768" y="4.75877372" width="4.90510949" height="4.90510949"></rect>
                <path d="M46.7809635,0 L34.6938394,0 C34.0489343,0 33.5259562,0.522861314 33.5259562,1.16788321 L33.5259562,13.2547737 C33.5259562,13.8997956 34.0489343,14.4226569 34.6938394,14.4226569 L46.7809635,14.4226569 C47.4257518,14.4226569 47.9488467,13.8997956 47.9488467,13.2547737 L47.9488467,1.16788321 C47.9488467,0.522861314 47.4259854,0 46.7809635,0 L46.7809635,0 Z M45.6130803,12.0868905 L35.8617226,12.0868905 L35.8617226,2.33576642 L45.6130803,2.33576642 L45.6130803,12.0868905 L45.6130803,12.0868905 Z" id="Shape" sketch:type="MSShapeGroup"></path>
                <rect id="Rectangle-path" sketch:type="MSShapeGroup" x="38.2848467" y="4.75877372" width="4.90510949" height="4.90510949"></rect>
                <path d="M46.7809635,33.5352993 L34.6938394,33.5352993 C34.0489343,33.5352993 33.5259562,34.0581606 33.5259562,34.7031825 L33.5259562,46.790073 C33.5259562,47.4348613 34.0489343,47.9579562 34.6938394,47.9579562 L46.7809635,47.9579562 C47.4257518,47.9579562 47.9488467,47.4348613 47.9488467,46.790073 L47.9488467,34.7031825 C47.9488467,34.0581606 47.4259854,33.5352993 46.7809635,33.5352993 L46.7809635,33.5352993 Z M45.6130803,45.6223066 L35.8617226,45.6223066 L35.8617226,35.8711825 L45.6130803,35.8711825 L45.6130803,45.6223066 L45.6130803,45.6223066 Z" id="Shape" sketch:type="MSShapeGroup"></path>
                <rect id="Rectangle-path" sketch:type="MSShapeGroup" x="38.2848467" y="38.294073" width="4.90510949" height="4.90510949"></rect>
                <path d="M7.2499854,34.3574891 L7.2499854,29.1091387 L13.6149489,29.1091387 C13.776,29.1091387 13.9069197,28.9781022 13.9069197,28.8171679 L13.9069197,23.2768467 C13.9069197,23.1159124 13.776,22.9848759 13.6149489,22.9848759 L7.2499854,22.9848759 L7.2499854,17.7365255 C7.2499854,17.5755912 7.11906569,17.4445547 6.9580146,17.4445547 L0.301080292,17.4445547 C0.140029197,17.4445547 0.00910948905,17.5755912 0.00910948905,17.7365255 L0.00910948905,23.2768467 C0.00910948905,23.437781 0.140029197,23.5688175 0.301080292,23.5688175 L6.6660438,23.5688175 L6.6660438,28.5251971 L0.301080292,28.5251971 C0.140029197,28.5251971 0.00910948905,28.6561168 0.00910948905,28.8171679 L0.00910948905,34.3574891 C0.00910948905,34.5183066 0.140029197,34.6494599 0.301080292,34.6494599 L6.9580146,34.6494599 C7.11918248,34.6494599 7.2499854,34.5184234 7.2499854,34.3574891 L7.2499854,34.3574891 Z" id="Shape" sketch:type="MSShapeGroup"></path>
                <path d="M17.3781022,20.8050219 C17.2170511,20.8050219 17.0861314,20.9360584 17.0861314,21.0969927 L17.0861314,27.5474453 C17.0861314,27.7083796 17.2170511,27.8394161 17.3781022,27.8394161 L23.8285547,27.8394161 C23.9896058,27.8394161 24.1205255,27.7083796 24.1205255,27.5474453 L24.1205255,21.0969927 C24.1205255,20.9360584 23.9896058,20.8050219 23.8285547,20.8050219 L17.3781022,20.8050219 L17.3781022,20.8050219 Z" id="Shape" sketch:type="MSShapeGroup"></path>
                <path d="M21.932146,13.0025109 L29.8050803,13.0025109 C29.9661314,13.0025109 30.0970511,12.8714745 30.0970511,12.7105401 L30.0970511,4.83760584 C30.0970511,4.67667153 29.9661314,4.54563504 29.8050803,4.54563504 L21.932146,4.54563504 C21.7710949,4.54563504 21.6401752,4.67667153 21.6401752,4.83760584 L21.6401752,12.7105401 C21.6401752,12.8714745 21.7712117,13.0025109 21.932146,13.0025109 L21.932146,13.0025109 Z" id="Shape" sketch:type="MSShapeGroup"></path>
                <path d="M29.2803504,16.9524088 L29.2803504,22.8663358 C29.2803504,23.0272701 29.4112701,23.1583066 29.5723212,23.1583066 L35.486365,23.1583066 C35.6474161,23.1583066 35.7783358,23.0272701 35.7783358,22.8663358 L35.7783358,16.9524088 C35.7783358,16.7914745 35.6474161,16.660438 35.486365,16.660438 L29.5723212,16.660438 C29.4112701,16.660438 29.2803504,16.7914745 29.2803504,16.9524088 L29.2803504,16.9524088 Z" id="Shape" sketch:type="MSShapeGroup"></path>
                <path d="M10.4889927,37.1858686 L6.34452555,37.1858686 C6.18347445,37.1858686 6.05255474,37.3170219 6.05255474,37.4778394 L6.05255474,41.3304526 L0.301080292,41.3304526 C0.140029197,41.3304526 0.00910948905,41.4613723 0.00910948905,41.6224234 L0.00910948905,47.6657518 C0.00910948905,47.8268029 0.140029197,47.9577226 0.301080292,47.9577226 L6.34452555,47.9577226 C6.50557664,47.9577226 6.63649635,47.8268029 6.63649635,47.6657518 L6.63649635,41.9143942 L10.4889927,41.9143942 C10.6500438,41.9143942 10.7809635,41.7832409 10.7809635,41.6224234 L10.7809635,37.4778394 C10.7809635,37.3170219 10.6500438,37.1858686 10.4889927,37.1858686 L10.4889927,37.1858686 Z" id="Shape" sketch:type="MSShapeGroup"></path>
                <path d="M31.1921752,33.0415182 L27.047708,33.0415182 C26.8866569,33.0415182 26.7557372,33.1725547 26.7557372,33.3334891 L26.7557372,37.1858686 L23.1953285,37.1858686 L23.1953285,33.3334891 C23.1953285,33.1725547 23.0644088,33.0415182 22.9033577,33.0415182 L18.7588905,33.0415182 C18.5978394,33.0415182 18.4669197,33.1725547 18.4669197,33.3334891 L18.4669197,37.4778394 C18.4669197,37.6388905 18.5978394,37.7698102 18.7588905,37.7698102 L22.6113869,37.7698102 L22.6113869,41.3304526 L16.8599124,41.3304526 C16.6988613,41.3304526 16.5679416,41.4613723 16.5679416,41.6224234 L16.5679416,47.6657518 C16.5679416,47.8268029 16.6988613,47.9577226 16.8599124,47.9577226 L22.9033577,47.9577226 C23.0644088,47.9577226 23.1953285,47.8268029 23.1953285,47.6657518 L23.1953285,41.9143942 L27.047708,41.9143942 C27.2087591,41.9143942 27.3396788,41.7832409 27.3396788,41.6224234 L27.3396788,37.7698102 L31.1921752,37.7698102 C31.3532263,37.7698102 31.484146,37.6388905 31.484146,37.4778394 L31.484146,33.3334891 C31.484146,33.1725547 31.3532263,33.0415182 31.1921752,33.0415182 L31.1921752,33.0415182 Z" id="Shape" sketch:type="MSShapeGroup"></path>
                <path d="M20.1414307,17.3993577 L20.1414307,13.2548905 C20.1414307,13.0939562 20.0105109,12.9629197 19.8494599,12.9629197 L15.7049927,12.9629197 C15.5440584,12.9629197 15.4130219,13.0939562 15.4130219,13.2548905 L15.4130219,17.3993577 C15.4130219,17.560292 15.5440584,17.6913285 15.7049927,17.6913285 L19.8494599,17.6913285 C20.0105109,17.6913285 20.1414307,17.560292 20.1414307,17.3993577 L20.1414307,17.3993577 Z" id="Shape" sketch:type="MSShapeGroup"></path>
                <path d="M21.8145401,4.43643796 L21.8145401,0.291970803 C21.8145401,0.131036496 21.6836204,0 21.5225693,0 L17.3781022,0 C17.2170511,0 17.0861314,0.131036496 17.0861314,0.291970803 L17.0861314,4.43643796 C17.0861314,4.59737226 17.2170511,4.72840876 17.3781022,4.72840876 L21.5224526,4.72840876 C21.6837372,4.72840876 21.8145401,4.59748905 21.8145401,4.43643796 L21.8145401,4.43643796 Z" id="Shape" sketch:type="MSShapeGroup"></path>
                <path d="M47.6568759,21.4964088 C47.817927,21.4964088 47.9488467,21.3653723 47.9488467,21.204438 L47.9488467,17.0599708 C47.9488467,16.8990365 47.817927,16.768 47.6568759,16.768 L43.5124088,16.768 C43.3513577,16.768 43.220438,16.8990365 43.220438,17.0599708 L43.220438,20.9124672 L39.3679416,20.9124672 C39.2068905,20.9124672 39.0759708,21.0435036 39.0759708,21.204438 L39.0759708,25.3489051 C39.0759708,25.5098394 39.2068905,25.6408759 39.3679416,25.6408759 L43.220438,25.6408759 L43.220438,29.4933723 C43.220438,29.6541898 43.3513577,29.7853431 43.5124088,29.7853431 L47.6568759,29.7853431 C47.817927,29.7853431 47.9488467,29.6541898 47.9488467,29.4933723 L47.9488467,25.3489051 C47.9488467,25.1879708 47.817927,25.0569343 47.6568759,25.0569343 L43.8043796,25.0569343 L43.8043796,21.4964088 L47.6568759,21.4964088 L47.6568759,21.4964088 L47.6568759,21.4964088 Z" id="Shape" sketch:type="MSShapeGroup"></path>
            </g>
        </g>
    </g>
</svg>