<?xml version="1.0" encoding="UTF-8" standalone="no"?>
<svg width="22px" height="38px" viewBox="0 0 22 38" version="1.1" xmlns="http://www.w3.org/2000/svg" xmlns:xlink="http://www.w3.org/1999/xlink" xmlns:sketch="http://www.bohemiancoding.com/sketch/ns">
    <!-- Generator: Sketch 3.2.2 (9983) - http://www.bohemiancoding.com/sketch -->
    <title>ico-payments</title>
    <desc>Created with Sketch.</desc>
    <defs></defs>
    <g id="GUI-light" stroke="none" stroke-width="1" fill="none" fill-rule="evenodd" sketch:type="MSPage">
        <g id="Menu-Drawer-2" sketch:type="MSArtboardGroup" transform="translate(-66.000000, -599.000000)" fill="#D3EB00">
            <g id="Group" sketch:type="MSLayerGroup" transform="translate(57.000000, 93.000000)">
                <g id="menu" transform="translate(0.421875, 498.693246)" sketch:type="MSShapeGroup">
                    <g id="Feed" transform="translate(8.203125, 0.000000)">
                        <g id="ico-payments">
                            <path d="M21.5015625,26.6941529 L21.5015625,26.6894662 L21.375,26.4375572 L12.3304688,7.97438462 L12.2941406,7.89822608 C12.2003906,7.73770732 12.0292969,7.6299137 11.8324219,7.6299137 C11.5359375,7.6299137 11.2957031,7.87362101 11.2957031,8.17356848 L11.2957031,8.18997186 L11.3097656,8.2930788 L12.8332031,20.7772205 C12.8390625,20.8088555 12.8414063,20.8404906 12.8449219,20.874469 C12.8496094,20.9271942 12.853125,20.9799193 12.853125,21.0349878 C12.853125,21.9348302 12.13125,22.6647805 11.2417969,22.6647805 L11.2417969,22.6741538 L2.80195313,22.6741538 C1.55859375,22.7714024 0.577734375,23.8247336 0.577734375,25.1100553 C0.577734375,25.4896764 0.66328125,25.8482073 0.816796875,26.1692448 L9.92460938,44.7613011 L9.98085938,44.8808114 C9.984375,44.8831548 9.984375,44.8831548 9.984375,44.8843265 C10.0816406,45.0284418 10.246875,45.1233471 10.4296875,45.1233471 C10.7261719,45.1233471 10.9675781,44.8808114 10.9675781,44.5796923 C10.9675781,44.5679756 10.9675781,44.5550872 10.9652344,44.5433705 L10.9570313,44.4695553 C10.9570313,44.4695553 10.9570313,44.4695553 10.9570313,44.4683837 L9.43945313,32.0510272 C9.42304688,31.966667 9.41132813,31.8799634 9.40898438,31.7909165 C9.40546875,31.7663114 9.40546875,31.7417064 9.40546875,31.7171013 C9.40546875,30.8172589 10.1273438,30.0873086 11.0167969,30.0873086 L11.0167969,30.0779353 L19.4648438,30.0779353 C20.7082031,29.979515 21.6890625,28.9273555 21.6890625,27.6420338 C21.6890625,27.3057645 21.6234375,26.9858987 21.5015625,26.6941529"></path>
                        </g>
                    </g>
                </g>
            </g>
        </g>
    </g>
</svg>