<?xml version="1.0" encoding="UTF-8" standalone="no"?>
<svg width="33px" height="36px" viewBox="0 0 33 36" version="1.1" xmlns="http://www.w3.org/2000/svg" xmlns:xlink="http://www.w3.org/1999/xlink" xmlns:sketch="http://www.bohemiancoding.com/sketch/ns">
    <!-- Generator: Sketch 3.2.2 (9983) - http://www.bohemiancoding.com/sketch -->
    <title>ico-logout</title>
    <desc>Created with Sketch.</desc>
    <defs></defs>
    <g id="GUI-light" stroke="none" stroke-width="1" fill="none" fill-rule="evenodd" sketch:type="MSPage">
        <g id="Menu-Drawer-1" sketch:type="MSArtboardGroup" transform="translate(-490.000000, -1237.000000)" fill="#D7D7D7">
            <g id="Buttons-2" sketch:type="MSLayerGroup" transform="translate(490.000000, 1237.000000)">
                <path d="M16.1133106,19.130322 L16.1604096,19.130322 C17.3337884,19.130322 18.2866894,18.1477119 18.2866894,16.9378644 L18.2866894,2.88598305 C18.2866894,2.8609661 18.2866894,2.83386441 18.2846416,2.80745763 C18.2457338,1.63444068 17.3078498,0.694915254 16.1604096,0.694915254 L16.1133106,0.694915254 C14.9645051,0.694915254 14.0279863,1.63444068 13.9877133,2.80745763 C13.9856655,2.83386441 13.9856655,2.8609661 13.9856655,2.88598305 L13.9856655,16.9378644 C13.9856655,18.1477119 14.9385666,19.130322 16.1133106,19.130322 L16.1133106,19.130322 Z M25.1085324,5.46411864 C25.0279863,5.40783051 24.9467577,5.35432203 24.865529,5.30081356 C24.5617747,5.12152542 24.2116041,5.02145763 23.8361775,5.02145763 C22.6757679,5.02145763 21.7365188,5.98947458 21.7365188,7.18542373 C21.7365188,7.86435593 22.040273,8.47240678 22.5174061,8.86642373 C22.6320819,8.94216949 22.7474403,9.02069492 22.8614334,9.10061017 C26.0177474,11.3132203 28.090785,15.0463051 28.090785,19.2762542 C28.090785,26.0739153 22.737884,31.5832034 16.1358362,31.5832034 C9.53447099,31.5832034 4.18361775,26.0739153 4.18361775,19.2762542 C4.18361775,15.0483898 6.25460751,11.3166949 9.40750853,9.10269492 C9.52286689,9.02069492 9.63959044,8.94216949 9.75699659,8.86642373 C10.2320819,8.47240678 10.5372014,7.86435593 10.5372014,7.18542373 C10.5372014,5.98947458 9.59590444,5.02145763 8.43686007,5.02145763 C8.06075085,5.02145763 7.70853242,5.12361017 7.40341297,5.30081356 C7.32423208,5.35432203 7.2443686,5.40922034 7.16518771,5.46411864 C2.84505119,8.446 0,13.5188814 0,19.2762542 C0,28.4519153 7.22525597,35.891678 16.1358362,35.891678 C25.047099,35.891678 32.2709898,28.4519153 32.2709898,19.2762542 C32.2709898,13.5188814 29.4279863,8.446 25.1085324,5.46411864 L25.1085324,5.46411864 Z" id="ico-logout" sketch:type="MSShapeGroup"></path>
            </g>
        </g>
    </g>
</svg>