<?xml version="1.0" encoding="UTF-8" standalone="no"?>
<svg width="34px" height="36px" viewBox="0 0 34 36" version="1.1" xmlns="http://www.w3.org/2000/svg" xmlns:xlink="http://www.w3.org/1999/xlink" xmlns:sketch="http://www.bohemiancoding.com/sketch/ns">
    <!-- Generator: Sketch 3.2.2 (9983) - http://www.bohemiancoding.com/sketch -->
    <title>ico-adressbook</title>
    <desc>Created with Sketch.</desc>
    <defs></defs>
    <g id="GUI-light" stroke="none" stroke-width="1" fill="none" fill-rule="evenodd" sketch:type="MSPage">
        <g id="Menu-Drawer-2" sketch:type="MSArtboardGroup" transform="translate(-59.000000, -1036.000000)" fill="#D3EB00">
            <g id="Group" sketch:type="MSLayerGroup" transform="translate(57.000000, 93.000000)">
                <g id="menu" transform="translate(0.421875, 498.693246)" sketch:type="MSShapeGroup">
                    <g id="Messages" transform="translate(0.000000, 399.539400)">
                        <path d="M28.5632813,45.1092871 L7.78242188,45.1092871 C4.453125,45.1092871 1.753125,47.8228743 1.753125,51.1679916 L1.753125,68.4044259 C1.753125,71.7518865 4.453125,74.4643021 7.78242188,74.4643021 L8.1375,74.4643021 C9.01171875,74.4643021 9.73359375,75.1333255 9.81796875,75.9909878 L9.81796875,75.9956745 C9.82617188,76.050743 9.8296875,76.1069831 9.8296875,76.1620516 C9.8296875,76.2229784 9.82617188,76.2792186 9.81796875,76.3354587 C9.81796875,77.8750328 9.81210938,79.4438987 9.81210938,79.4438987 L9.815625,79.4438987 C9.81796875,79.9067083 10.1953125,80.2804709 10.6535156,80.2769559 C10.8292969,80.2769559 10.9921875,80.2195441 11.1257813,80.1258105 L11.2382813,80.0309053 L16.3511719,75.053652 C16.4109375,74.9950685 16.4742188,74.943515 16.5410156,74.8919615 L16.5445313,74.8907899 C16.7882813,74.7080094 17.2277344,74.4643021 18.225,74.4643021 L28.5632813,74.4643021 C31.8890625,74.4643021 34.5878906,71.7518865 34.5878906,68.4044259 L34.5878906,51.1679916 C34.5878906,47.8228743 31.8890625,45.1092871 28.5632813,45.1092871 L28.5632813,45.1092871 Z M11.7070313,62.1664559 C10.4566406,62.1664559 9.44179688,61.1482749 9.44179688,59.8910732 C9.44179688,58.6350432 10.4566406,57.6168621 11.7070313,57.6168621 C12.9539063,57.6168621 13.96875,58.6350432 13.96875,59.8910732 C13.96875,61.1482749 12.9539063,62.1664559 11.7070313,62.1664559 L11.7070313,62.1664559 Z M18.1722656,62.1664559 C16.921875,62.1664559 15.9070313,61.1482749 15.9070313,59.8910732 C15.9070313,58.6350432 16.921875,57.6168621 18.1722656,57.6168621 C19.4203125,57.6168621 20.4339844,58.6350432 20.4339844,59.8910732 C20.4339844,61.1482749 19.4203125,62.1664559 18.1722656,62.1664559 L18.1722656,62.1664559 Z M24.6375,62.1664559 C23.3871094,62.1664559 22.3722656,61.1482749 22.3722656,59.8910732 C22.3722656,58.6350432 23.3871094,57.6168621 24.6375,57.6168621 C25.8855469,57.6168621 26.8992188,58.6350432 26.8992188,59.8910732 C26.8992188,61.1482749 25.8855469,62.1664559 24.6375,62.1664559 L24.6375,62.1664559 Z" id="ico-adressbook"></path>
                    </g>
                </g>
            </g>
        </g>
    </g>
</svg>