<?xml version="1.0" encoding="UTF-8" standalone="no"?>
<svg width="41px" height="42px" viewBox="0 0 41 42" version="1.1" xmlns="http://www.w3.org/2000/svg" xmlns:xlink="http://www.w3.org/1999/xlink" xmlns:sketch="http://www.bohemiancoding.com/sketch/ns">
    <!-- Generator: Sketch 3.2.2 (9983) - http://www.bohemiancoding.com/sketch -->
    <title>ico-settings</title>
    <desc>Created with Sketch.</desc>
    <defs></defs>
    <g id="GUI-light" stroke="none" stroke-width="1" fill="none" fill-rule="evenodd" sketch:type="MSPage">
        <g id="Menu-Drawer-1" sketch:type="MSArtboardGroup" transform="translate(-52.000000, -1234.000000)" fill="#797778">
            <path d="M91.1101902,1251.57293 L88.3377447,1251.27511 C87.9432333,1249.58094 87.2871073,1247.99313 86.4145016,1246.55253 L88.1705788,1244.34269 C88.850108,1243.48752 88.7857491,1242.24774 88.022637,1241.47 L86.2322909,1239.64649 C85.4691788,1238.86875 84.2513756,1238.80323 83.4122031,1239.49587 L81.2423905,1241.2845 C79.8281674,1240.39529 78.2701818,1239.72732 76.6068817,1239.32569 L76.3143414,1236.50065 C76.2015045,1235.40637 75.2954656,1234.57587 74.2155743,1234.57587 L71.6838476,1234.57587 C70.6039563,1234.57587 69.6979174,1235.40637 69.5850804,1236.50065 L69.2933761,1239.32569 C67.6292401,1239.72732 66.0712544,1240.39529 64.6570314,1241.2845 L62.4872188,1239.49587 C61.6480462,1238.80323 60.4310789,1238.86875 59.667131,1239.64649 L57.8767848,1241.47 C57.1136728,1242.24774 57.0493139,1243.48752 57.7288431,1244.34269 L59.4857561,1246.55253 C58.6123146,1247.99313 57.9561886,1249.58094 57.5625131,1251.27511 L54.7892317,1251.57293 C53.7151912,1251.68781 52.8994219,1252.6102 52.8994219,1253.71044 L52.8994219,1256.28956 C52.8994219,1257.3898 53.7151912,1258.31219 54.7892317,1258.42792 L57.5616772,1258.72489 C57.9561886,1260.41991 58.6123146,1262.00687 59.4857561,1263.44747 L57.7288431,1265.65731 C57.0493139,1266.51248 57.1136728,1267.75226 57.8767848,1268.53 L59.667131,1270.35351 C60.4310789,1271.1321 61.6480462,1271.19677 62.4872188,1270.50498 L64.6570314,1268.7155 C66.0712544,1269.60471 67.6292401,1270.27268 69.2933761,1270.67431 L69.5850804,1273.49935 C69.6979174,1274.59363 70.6039563,1275.42413 71.6838476,1275.42413 L74.2155743,1275.42413 C75.2954656,1275.42413 76.2015045,1274.59363 76.3143414,1273.49935 L76.6068817,1270.67431 C78.2701818,1270.27268 79.8281674,1269.60471 81.2423905,1268.7155 L83.4122031,1270.50498 C84.2513756,1271.19677 85.4691788,1271.1321 86.2322909,1270.35351 L88.022637,1268.53 C88.7857491,1267.75226 88.850108,1266.51248 88.1705788,1265.65731 L86.4145016,1263.44747 C87.2871073,1262.00687 87.9432333,1260.41991 88.3377447,1258.72489 L91.1101902,1258.42792 C92.1850665,1258.31219 93,1257.3898 93,1256.28956 L93,1253.71044 C93,1252.6102 92.1850665,1251.68781 91.1101902,1251.57293 L91.1101902,1251.57293 Z M65.5630703,1255.00043 C65.5630703,1250.84455 68.8704465,1247.47577 72.9501289,1247.47577 C77.0298112,1247.47577 80.3363516,1250.84455 80.3363516,1255.00043 C80.3363516,1259.15545 77.0298112,1262.52508 72.9501289,1262.52508 C68.8704465,1262.52508 65.5630703,1259.15545 65.5630703,1255.00043 Z" id="ico-settings" sketch:type="MSShapeGroup"></path>
        </g>
    </g>
</svg>