<?xml version="1.0" encoding="UTF-8" standalone="no"?>
<svg width="46px" height="42px" viewBox="0 0 46 42" version="1.1" xmlns="http://www.w3.org/2000/svg" xmlns:xlink="http://www.w3.org/1999/xlink" xmlns:sketch="http://www.bohemiancoding.com/sketch/ns">
    <!-- Generator: Sketch 3.3.1 (12002) - http://www.bohemiancoding.com/sketch -->
    <title>icon-shop</title>
    <desc>Created with Sketch.</desc>
    <defs></defs>
    <g id="GUI-light" stroke="none" stroke-width="1" fill="none" fill-rule="evenodd" sketch:type="MSPage">
        <g id="Menu-Drawer-1" sketch:type="MSArtboardGroup" transform="translate(-56.000000, -1024.000000)" fill="#D3EB00">
            <path d="M63.41672,1065.54904 L94.55096,1065.54904 L63.41672,1065.54904 Z M95.80808,1065.6844 C96.4748,1065.6844 97.06232,1065.1444 97.06232,1064.4748 L97.06232,1046.17096 C97.5656,1046.28688 97.75712,1046.35096 98.12,1046.35096 C100.2296,1046.35096 101.80136,1044.17728 101.90864,1042.75096 L101.97056,1042.0792 L101.91656,1042.0792 C101.91944,1042.0792 101.92232,1041.95536 101.90288,1041.8848 C101.87192,1041.784 101.80712,1041.71056 101.7344,1041.64576 L96.47768,1024.42192 C96.40136,1024.1692 96.1652,1024 95.90096,1024 L62.0696,1024 C61.80248,1024 61.56848,1024.17496 61.49,1024.43056 L56.31248,1041.60112 C56.19152,1041.68248 56.09576,1041.784 56.05328,1041.92728 C56.03672,1041.98632 56.04464,1042.0792 56.04464,1042.0792 L56,1042.0792 L56.04752,1042.75096 C56.1548,1044.1744 57.73808,1046.34016 59.84768,1046.34016 C60.21056,1046.34016 60.40136,1046.284 60.90464,1046.17096 L60.90464,1064.4748 C60.90464,1065.1444 61.49288,1065.6844 62.16248,1065.6844 L95.80808,1065.6844 Z M89.15096,1042.0792 L86.88368,1025.0044 L90.50672,1025.0044 L94.28384,1042.0792 L89.15096,1042.0792 Z M76.42712,1042.0792 L77.17808,1025.0044 L80.66,1025.0044 L81.37712,1042.0792 L76.42712,1042.0792 Z M63.72056,1042.0792 L67.4552,1025.0044 L71.10056,1025.0044 L68.79152,1042.0792 L63.72056,1042.0792 Z M63.41672,1057.14592 L63.41672,1044.74536 C63.92,1045.63096 65.06192,1046.35384 66.28232,1046.35384 C67.67192,1046.35384 68.78576,1045.41784 69.44096,1044.37384 C70.09616,1045.41784 71.22656,1046.35384 72.61616,1046.35384 C74.00576,1046.35384 75.1448,1045.41784 75.8,1044.37384 C76.4552,1045.41784 77.6,1046.35384 78.9896,1046.35384 C80.37848,1046.35384 81.52616,1045.41784 82.18136,1044.37384 C82.83656,1045.41784 83.98424,1046.35384 85.37096,1046.35384 C86.76056,1046.35384 87.90752,1045.41784 88.5656,1044.37384 C89.22152,1045.41784 90.29864,1046.35384 91.68752,1046.35384 C92.90864,1046.35384 94.05056,1045.63096 94.55096,1044.74536 L94.55096,1057.14592 L63.41672,1057.14592 Z" id="icon-shop" sketch:type="MSShapeGroup"></path>
        </g>
    </g>
</svg>