<?xml version="1.0" encoding="UTF-8" standalone="no"?>
<svg width="256px" height="256px" viewBox="0 0 256 256" version="1.1" xmlns="http://www.w3.org/2000/svg" xmlns:xlink="http://www.w3.org/1999/xlink" xmlns:sketch="http://www.bohemiancoding.com/sketch/ns">
    <!-- Generator: Sketch 3.3.1 (12002) - http://www.bohemiancoding.com/sketch -->
    <title>icon-btc</title>
    <desc>Created with Sketch.</desc>
    <defs></defs>
    <g id="GUI-light" stroke="none" stroke-width="1" fill="none" fill-rule="evenodd" sketch:type="MSPage">
        <g id="icon-btc" sketch:type="MSArtboardGroup" fill="#caee36">
            <g id="Imported-Layers" sketch:type="MSLayerGroup" transform="translate(57.000000, 57.000000)">
                <path d="M91,55.4989555 C91,50.2032982 86.7469366,46 81.3838299,46 L56,46 L56,64.9999877 L81.3838299,64.9999877 C86.7469366,65.0082946 91,60.7966895 91,55.4989555 L91,55.4989555 Z" id="Fill-1" sketch:type="MSShapeGroup"></path>
                <path d="M82.8637532,75 L56,75 L56,98 L83.014353,98 C89.1197515,98 94,92.8320936 94,86.5730225 C94,80.3139514 88.9691517,75 82.8637532,75 L82.8637532,75 Z" id="Fill-2" sketch:type="MSShapeGroup"></path>
                <path d="M71.5000897,1 C32.8088888,1 1.31158179,32.4879111 1.00243652,71.0258222 C0.847863893,89.8258222 8.05220185,107.687911 21.3684252,121.004578 C34.530076,134.475822 52.2265535,141.845422 71.0259277,142 L71.5000897,142 C110.191291,142 141.688598,110.512089 141.997743,71.9741778 C142.306888,33.1166667 110.820025,1.30915556 71.5000897,1 L71.5000897,1 Z M83.7238606,106.121244 L83.7238606,112.233333 C83.7238606,114.737911 81.6830841,116.778756 79.1785897,116.778756 C76.6740953,116.778756 74.6333188,114.737911 74.6333188,112.233333 L74.6333188,106.121244 L68.9955953,106.121244 L68.9955953,112.233333 C68.9955953,114.737911 66.9548188,116.778756 64.4503244,116.778756 C61.94583,116.778756 59.9050535,114.737911 59.9050535,112.233333 L59.9050535,106.275822 L50.8166005,106.275822 C49.5591312,106.275822 48.3100173,105.649156 47.52671,104.865822 C46.7434027,103.925822 46.2713296,102.824978 46.2713296,101.575822 L46.2713296,41.2591556 C46.2713296,38.7545778 48.3100173,36.7158222 50.8166005,36.7158222 L59.9050535,36.7158222 L59.9050535,30.7666667 C59.9050535,28.2620889 61.94583,26.2212444 64.4503244,26.2212444 C66.9548188,26.2212444 68.9955953,28.2620889 68.9955953,30.7666667 L68.9955953,36.7241778 L74.6333188,36.7241778 L74.6333188,30.7666667 C74.6333188,28.2620889 76.6740953,26.2212444 79.1785897,26.2212444 C81.6830841,26.2212444 83.7238606,28.2620889 83.7238606,30.7666667 L83.7238606,36.8787556 C92.6493857,38.2908444 99.5445784,45.9675111 99.5445784,55.3675111 C99.5445784,60.3787556 97.5038019,65.0787556 94.2160002,68.3750222 C99.8537236,72.1371111 103.615687,78.4037778 103.615687,85.6083556 C103.615687,96.7212444 94.6901622,105.812089 83.7238606,106.121244 L83.7238606,106.121244 Z" id="Fill-3" sketch:type="MSShapeGroup"></path>
            </g>
        </g>
    </g>
</svg>