<?xml version="1.0" encoding="UTF-8" standalone="no"?>
<svg width="256px" height="256px" viewBox="0 0 256 256" version="1.1" xmlns="http://www.w3.org/2000/svg" xmlns:xlink="http://www.w3.org/1999/xlink" xmlns:sketch="http://www.bohemiancoding.com/sketch/ns">
    <!-- Generator: Sketch 3.3.1 (12002) - http://www.bohemiancoding.com/sketch -->
    <title>icon-bank</title>
    <desc>Created with Sketch.</desc>
    <defs></defs>
    <g id="GUI-light" stroke="none" stroke-width="1" fill="none" fill-rule="evenodd" sketch:type="MSPage">
        <g id="icon-bank" sketch:type="MSArtboardGroup" fill="#caee36">
            <g id="Imported-Layers" sketch:type="MSLayerGroup" transform="translate(58.000000, 48.000000)">
                <path d="M0,141 L137,141 L137,148 L0,148 L0,141 Z" id="Fill-1" sketch:type="MSShapeGroup"></path>
                <path d="M136,79.0722892 L115.42065,79.0722892 C113.461854,56.3012048 94.9938211,38.0713253 72.1244878,36.4773494 C72.3184065,36.0457831 72.2682927,35.206506 72.2682927,34.6990361 L72.2682927,24.4910843 C82.0731707,21.1708434 90.2439024,32.953253 98.4146341,26.0742169 L98.4146341,6.0746988 C90.2439024,12.9537349 81.0948618,1.16048193 72.2770081,4.48939759 C72.2508618,2.55927711 70.9566179,1 69.0087154,1 C67.0433821,1 65.7317073,2.58313253 65.7317073,4.54144578 L65.7317073,34.6990361 C65.7317073,35.206506 65.7142764,36.0371084 65.9016585,36.4686747 C43.0061789,38.0366265 24.5381463,56.3012048 22.5793496,79.0722892 L2,79.0722892 L2,136 L136,136 L136,79.0722892 Z M31.4146341,122.580241 C31.4146341,125.579518 28.7084878,128.019277 25.695122,128.019277 C22.6817561,128.019277 19.9756098,125.588193 19.9756098,122.580241 L19.9756098,96.1939759 C19.9756098,93.1946988 22.6817561,90.7549398 25.695122,90.7549398 C28.7084878,90.7549398 31.4146341,93.1860241 31.4146341,96.1939759 L31.4146341,122.580241 Z M60.8292683,122.580241 C60.8292683,125.579518 58.123122,128.019277 55.1097561,128.019277 C52.0963902,128.019277 49.3902439,125.588193 49.3902439,122.580241 L49.3902439,96.1939759 C49.3902439,93.1946988 52.0963902,90.7549398 55.1097561,90.7549398 C58.123122,90.7549398 60.8292683,93.1860241 60.8292683,96.1939759 L60.8292683,122.580241 Z M88.6097561,122.580241 C88.6097561,125.579518 85.9036098,128.019277 82.8902439,128.019277 C79.876878,128.019277 77.1707317,125.588193 77.1707317,122.580241 L77.1707317,96.1939759 C77.1707317,93.1946988 79.876878,90.7549398 82.8902439,90.7549398 C85.9036098,90.7549398 88.6097561,93.1860241 88.6097561,96.1939759 L88.6097561,122.580241 Z M118.02439,122.580241 C118.02439,125.579518 115.318244,128.019277 112.304878,128.019277 C109.291512,128.019277 106.585366,125.588193 106.585366,122.580241 L106.585366,96.1939759 C106.585366,93.1946988 109.291512,90.7549398 112.304878,90.7549398 C115.318244,90.7549398 118.02439,93.1860241 118.02439,96.1939759 L118.02439,122.580241 Z" id="Fill-2" sketch:type="MSShapeGroup"></path>
            </g>
        </g>
    </g>
</svg>