<?xml version="1.0" encoding="UTF-8" standalone="no"?>
<svg width="256px" height="256px" viewBox="0 0 256 256" version="1.1" xmlns="http://www.w3.org/2000/svg" xmlns:xlink="http://www.w3.org/1999/xlink" xmlns:sketch="http://www.bohemiancoding.com/sketch/ns">
    <!-- Generator: Sketch 3.3.1 (12002) - http://www.bohemiancoding.com/sketch -->
    <title>icon-cash</title>
    <desc>Created with Sketch.</desc>
    <defs></defs>
    <g id="GUI-light" stroke="none" stroke-width="1" fill="none" fill-rule="evenodd" sketch:type="MSPage">
        <g id="icon-cash" sketch:type="MSArtboardGroup" fill="#caee36">
            <g id="Imported-Layers" sketch:type="MSLayerGroup" transform="translate(40.000000, 71.000000)">
                <path d="M59.6658212,93.7616193 L4.22071702,65.9410412 L0,68.0589588 L59.6658212,98 L179,38.1179176 L174.779283,36 L59.6658212,93.7616193 Z" id="Fill-1" sketch:type="MSShapeGroup"></path>
                <path d="M59.6658212,102.753983 L4.22071702,74.9410412 L0,77.0589588 L59.6658212,107 L179,47.1179176 L174.779283,45 L59.6658212,102.753983 Z" id="Fill-2" sketch:type="MSShapeGroup"></path>
                <path d="M59.6658212,110.764165 L4.22071702,82.9410412 L0,85.0589588 L59.6658212,115 L179,55.1179176 L174.779283,53 L59.6658212,110.764165 Z" id="Fill-3" sketch:type="MSShapeGroup"></path>
                <path d="M119.334179,0 L0,59.3350149 L59.6658212,89 L179,29.6675074 L119.334179,0 Z M104.412016,51.9143545 C96.1785745,56.0131217 82.8214255,56.0131217 74.5778376,51.9143545 C66.3342497,47.8155874 66.3342497,41.1768457 74.5778376,37.0755562 C82.8112796,32.9868783 96.1684285,32.9868783 104.412016,37.0755562 C112.655604,41.1768457 112.655604,47.8155874 104.412016,51.9143545 L104.412016,51.9143545 Z" id="Fill-4" sketch:type="MSShapeGroup"></path>
            </g>
        </g>
    </g>
</svg>